<svg xmlns="http://www.w3.org/2000/svg" viewBox="0 0 560 560">
  <defs><linearGradient id="g" x1="0" y1="0" x2="1" y2="1"><stop stop-color="#252b36"/><stop offset="1" stop-color="#404a5a"/></linearGradient></defs>
  <rect width="560" height="560" fill="url(#g)"/>
  <g fill="#55627a" opacity=".9">
    <rect x="56" y="66" width="90" height="64"/><rect x="168" y="66" width="84" height="58"/><rect x="270" y="68" width="96" height="62"/><rect x="388" y="72" width="88" height="56"/>
    <rect x="74" y="184" width="88" height="66"/><rect x="200" y="182" width="78" height="62"/><rect x="320" y="180" width="86" height="64"/><rect x="432" y="182" width="86" height="60"/>
    <rect x="70" y="302" width="92" height="62"/><rect x="186" y="302" width="80" height="60"/><rect x="306" y="300" width="90" height="64"/><rect x="432" y="302" width="86" height="62"/>
    <rect x="92" y="422" width="96" height="60"/><rect x="228" y="420" width="82" height="58"/><rect x="362" y="418" width="96" height="62"/>
  </g>
  <path d="M70 500L420 90" stroke="#6f8098" stroke-width="40" stroke-linecap="round" fill="none" opacity=".5"/>
</svg>
